HIERARCHY
ROOT Hips
{
	OFFSET 0 0 0
	CHANNELS 6 Xposition Yposition Zposition Xrotation Yrotation Zrotation
	JOINT LeftUpLeg
	{
		OFFSET 7.879461 0 0
		CHANNELS 3 Xrotation Yrotation Zrotation
		JOINT LeftLeg
		{
			OFFSET 0 -42.7566074 0
			CHANNELS 3 Xrotation Yrotation Zrotation
			JOINT LeftFoot
			{
				OFFSET 0 -39.4685266 0
				CHANNELS 3 Xrotation Yrotation Zrotation
				JOINT LeftToeBase
				{
					OFFSET 0 -3.9970964 14.9173438
					CHANNELS 3 Xrotation Yrotation Zrotation
					End Site
					{
						OFFSET 0 0 7.499985
					}
				}
			}
		}
	}
	JOINT RightUpLeg
	{
		OFFSET -7.879461 0 0
		CHANNELS 3 Xrotation Yrotation Zrotation
		JOINT RightLeg
		{
			OFFSET 0 -42.7566074 0
			CHANNELS 3 Xrotation Yrotation Zrotation
			JOINT RightFoot
			{
				OFFSET 0 -39.4685266 0
				CHANNELS 3 Xrotation Yrotation Zrotation
				JOINT RightToeBase
				{
					OFFSET 0 -3.9970964 14.9173438
					CHANNELS 3 Xrotation Yrotation Zrotation
					End Site
					{
						OFFSET 0 0 7.499985
					}
				}
			}
		}
	}
	JOINT Spine
	{
		OFFSET 0 0.0999998 0
		CHANNELS 3 Xrotation Yrotation Zrotation
		JOINT Spine1
		{
			OFFSET 0 21.1085684 0
			CHANNELS 3 Xrotation Yrotation Zrotation
			JOINT Neck
			{
				OFFSET 0 15.8867602 0
				CHANNELS 3 Xrotation Yrotation Zrotation
				JOINT Head
				{
					OFFSET 0 21.8647518 0
					CHANNELS 3 Xrotation Yrotation Zrotation
					End Site
					{
						OFFSET 0 11.499977 0
					}
				}
			}
			JOINT LeftShoulder
			{
				OFFSET 0 15.8867602 0
				CHANNELS 3 Xrotation Yrotation Zrotation
				JOINT LeftArm
				{
					OFFSET 18.9193678 -7.62e-05 0
					CHANNELS 3 Xrotation Yrotation Zrotation
					JOINT LeftForeArm
					{
						OFFSET 27.268043 -0.0001016 0
						CHANNELS 3 Xrotation Yrotation Zrotation
						JOINT LeftHand
						{
							OFFSET 25.802336 -0.0001016 0
							CHANNELS 3 Xrotation Yrotation Zrotation
							JOINT LeftHandThumb
							{
								OFFSET 0 0 0
								CHANNELS 3 Xrotation Yrotation Zrotation
								End Site
								{
									OFFSET 0 0 9.99998
								}
							}
							JOINT L_Wrist_End
							{
								OFFSET 9.99998 -2.54e-05 0
								CHANNELS 3 Xrotation Yrotation Zrotation
							}
						}
					}
				}
			}
			JOINT RightShoulder
			{
				OFFSET 0 15.8867602 0
				CHANNELS 3 Xrotation Yrotation Zrotation
				JOINT RightArm
				{
					OFFSET -18.9193678 -7.62e-05 0
					CHANNELS 3 Xrotation Yrotation Zrotation
					JOINT RightForeArm
					{
						OFFSET -27.268043 -0.0001016 0
						CHANNELS 3 Xrotation Yrotation Zrotation
						JOINT RightHand
						{
							OFFSET -25.802336 -0.0001016 0
							CHANNELS 3 Xrotation Yrotation Zrotation
							JOINT RightHandThumb
							{
								OFFSET 0 0 0
								CHANNELS 3 Xrotation Yrotation Zrotation
								End Site
								{
									OFFSET 0 0 9.99998
								}
							}
							JOINT R_Wrist_End
							{
								OFFSET -13.6999726 -5.08e-05 0
								CHANNELS 3 Xrotation Yrotation Zrotation
							}
						}
					}
				}
			}
		}
	}
}
MOTION
Frames: 12
Frame Time: 0.008333
-143.783304 90.200734 -22.495002 61.7301 -89.8487 83.5474 -74.4389 -2.2333 63.7406 20.8092 0.0000 -0.0000 16.8663 -7.6262 -30.2997 -1.7613 0.0000 0.0000 -5.0686 -8.2831 -18.9036 16.7673 0.0000 -0.0000 -18.0965 -15.7119 -12.0009 3.3546 0.0000 0.0000 -1.9670 -0.7072 3.4098 2.6629 -5.9750 -27.3196 36.0947 33.9490 -7.1093 -25.1027 -16.8693 -13.4826 12.2771 -9.3056 27.6919 -55.1100 25.6781 -5.1561 -179.9982 -83.2843 -179.9980 -9.2103 7.8016 25.9726 -0.0000 -0.0000 0.0000 -0.0000 -0.0000 0.0000 25.3235 -10.0761 -24.0490 9.2132 -27.2357 58.5011 -0.0002 48.9135 0.0001 -6.4378 22.6941 11.5461 0.0000 -0.0000 0.0000 0.0000 -0.0000 0.0000
-143.925544 90.174064 -22.632924 91.2838 -89.5481 112.9618 -73.8364 0.3758 64.3413 23.3728 -0.0000 0.0000 18.3300 -8.8989 -31.2480 -1.6401 -0.0000 -0.0000 -5.2745 -8.5943 -18.8130 16.5944 -0.0000 0.0000 -18.1033 -15.0048 -11.5631 3.4013 0.0000 0.0000 -2.0525 -0.9345 3.1988 2.4433 -5.9410 -26.5116 35.5236 33.6315 -6.8083 -24.7860 -16.3116 -13.8002 12.3918 -9.1582 27.6585 -53.7873 26.2916 -6.5824 -179.9987 -80.7359 -179.9985 -8.6028 9.0364 22.8153 -0.0000 -0.0000 -0.0000 -0.0000 -0.0000 -0.0000 25.7063 -10.3314 -23.7890 10.1461 -28.7134 60.8103 -0.0002 47.1181 0.0001 -7.2697 22.2399 12.0123 -0.0000 0.0000 -0.0000 -0.0000 0.0000 -0.0000
-144.039844 90.124534 -22.720046 102.5254 -89.2315 124.0965 -73.3927 3.1138 64.9074 26.1208 -0.0000 -0.0000 18.6319 -8.9835 -32.5978 -1.5994 -0.0000 -0.0000 -5.5942 -8.8161 -18.8092 16.7012 0.0000 0.0000 -18.2152 -14.2716 -10.8706 3.3372 -0.0000 -0.0000 -2.1286 -1.2459 2.6950 2.4029 -5.8293 -25.1007 35.1427 33.4561 -6.8709 -24.6286 -16.0137 -14.2013 12.3551 -9.0180 27.1801 -52.4489 26.7364 -8.0877 -179.9990 -78.2828 -179.9988 -8.2090 9.9939 19.9512 0.0000 0.0000 0.0000 0.0000 0.0000 0.0000 25.7661 -10.5035 -23.7491 11.1593 -30.0429 62.9402 -0.0002 45.3292 0.0001 -9.5354 21.5821 13.3314 0.0000 0.0000 0.0000 0.0000 0.0000 0.0000
-144.165066 90.07475 -22.78634 109.2759 -88.9651 130.7071 -72.8246 5.8872 65.3688 28.8402 -0.0000 -0.0000 17.8170 -8.0959 -33.5490 -1.7396 -0.0000 -0.0000 -5.8698 -9.0592 -18.7746 16.8670 -0.0000 0.0000 -18.3169 -13.6220 -10.2083 3.1802 0.0000 -0.0000 -2.2029 -1.5230 2.2925 2.4368 -5.7153 -23.8905 34.6788 33.0888 -6.7526 -24.4820 -15.5668 -14.3805 12.3548 -8.9221 26.7158 -51.1415 27.0078 -9.4942 -179.9992 -75.9597 -179.9989 -8.1584 10.8020 17.5100 -0.0000 -0.0000 0.0000 -0.0000 -0.0000 0.0000 25.8138 -10.7725 -23.6277 11.9438 -30.8630 65.0101 -0.0002 43.3094 0.0001 -12.5781 21.1961 14.9765 0.0000 0.0000 0.0000 0.0000 0.0000 0.0000
-144.276572 90.034364 -22.827996 113.5203 -88.6657 134.7211 -72.0219 8.5882 65.6962 31.4169 -0.0000 -0.0000 16.1456 -6.5210 -34.1218 -1.6040 0.0000 -0.0000 -6.0472 -9.0230 -18.5999 16.9629 -0.0000 0.0000 -18.3280 -13.2143 -9.8838 3.0677 0.0000 0.0000 -2.2824 -1.7061 2.2324 2.3554 -5.7197 -23.2559 34.2025 32.8153 -6.4400 -24.3891 -15.0197 -14.3275 12.4417 -8.8199 26.5675 -49.7170 27.3380 -10.8059 -179.9993 -73.8191 -179.9990 -8.5679 11.0990 15.6890 -0.0000 -0.0000 -0.0000 -0.0000 -0.0000 -0.0000 26.0253 -10.9814 -23.3340 12.4228 -31.0808 67.0523 -0.0002 41.0733 0.0001 -15.8930 21.1519 16.5179 -0.0000 -0.0000 -0.0000 -0.0000 -0.0000 -0.0000
-144.386808 89.9922 -22.836632 115.0810 -88.5111 136.1860 -70.9925 11.4473 65.6622 33.8109 -0.0000 0.0000 14.0696 -4.5619 -33.8833 -1.6916 -0.0000 -0.0000 -6.2401 -9.1697 -18.6116 17.1797 -0.0000 0.0000 -18.4268 -12.7829 -9.4839 2.9507 -0.0000 0.0000 -2.4038 -1.8808 1.9476 2.5301 -5.6351 -22.3635 33.8642 32.4394 -6.2502 -24.4081 -14.6809 -14.1973 12.5863 -8.8091 26.2186 -48.4059 27.3063 -12.3265 -179.9994 -71.9588 -179.9991 -8.9010 11.1772 14.9059 0.0000 -0.0000 0.0000 0.0000 -0.0000 0.0000 26.0037 -11.4572 -23.2405 12.7790 -31.0563 69.1619 -0.0002 38.6469 0.0001 -19.3084 21.0691 18.2566 -0.0000 0.0000 0.0000 -0.0000 0.0000 0.0000
-144.469104 89.94521 -22.822154 111.8166 -88.4361 132.7827 -69.6238 14.1535 65.1895 36.0272 -0.0000 0.0000 11.8844 -2.3667 -33.4649 -1.4521 0.0000 -0.0000 -6.4392 -9.3238 -18.5906 17.4413 0.0000 0.0000 -18.5490 -12.4529 -9.1078 2.8369 0.0000 0.0000 -2.4007 -2.0722 1.8420 2.4245 -5.6125 -21.7427 33.5740 32.1000 -6.0272 -24.3466 -14.3995 -13.8577 12.7380 -8.8421 26.0108 -46.9381 27.2596 -13.8404 -179.9994 -70.2857 -179.9992 -9.1690 11.1718 14.2701 0.0000 0.0000 -0.0000 0.0000 0.0000 -0.0000 26.0163 -11.9125 -23.0135 13.0909 -30.5291 71.0797 -0.0002 36.2537 0.0001 -23.5415 20.9508 20.0389 -0.0000 0.0000 -0.0000 -0.0000 0.0000 -0.0000
-144.56664 89.896188 -22.790404 107.1952 -88.3869 128.0365 -67.9557 16.8291 64.3817 37.9915 -0.0000 0.0000 10.1369 -0.2065 -33.1372 -1.5401 -0.0000 -0.0000 -6.5092 -9.3232 -18.5605 17.6085 0.0000 -0.0000 -18.6824 -12.3421 -8.6735 2.7750 -0.0000 0.0000 -2.4964 -2.2167 1.7763 2.4258 -5.5707 -21.2210 33.2845 31.6930 -5.7576 -24.1978 -14.1662 -13.4473 13.0287 -8.9093 25.8871 -45.6349 27.1243 -15.3940 -179.9995 -68.8351 -179.9992 -9.0638 11.1671 13.8876 0.0000 -0.0000 -0.0000 0.0000 -0.0000 -0.0000 25.9935 -12.3512 -22.7277 13.3908 -29.7818 72.9203 -0.0001 33.8757 0.0000 -27.1322 20.3784 22.1654 -0.0000 0.0000 -0.0000 -0.0000 0.0000 -0.0000
-144.66189 89.853516 -22.732492 100.1817 -88.3739 121.0075 -65.9538 19.5536 63.1047 39.5849 -0.0000 0.0000 9.3242 1.4713 -33.0756 -1.5988 -0.0000 0.0000 -6.4782 -9.1747 -18.6268 17.7069 0.0000 0.0000 -18.8501 -12.4413 -8.1744 2.7993 0.0000 -0.0000 -2.6122 -2.3743 1.6316 2.4484 -5.5122 -20.7500 32.9716 31.1250 -5.4281 -23.9608 -13.8506 -13.0403 13.3349 -9.0686 25.7774 -44.4558 26.9513 -16.8978 -179.9995 -67.5307 -179.9992 -8.4525 11.3388 13.3891 0.0000 0.0000 -0.0000 0.0000 0.0000 -0.0000 25.8944 -12.6829 -22.3229 13.6986 -29.0159 74.5595 -0.0001 31.7198 0.0000 -30.4143 19.2555 24.3596 0.0000 -0.0000 0.0000 0.0000 -0.0000 0.0000
-144.759426 89.81059 -22.64283 90.1949 -88.3596 111.0060 -63.6462 22.1414 61.4075 40.8904 -0.0000 0.0000 9.4238 2.4219 -33.5172 -1.4229 0.0000 -0.0000 -6.3968 -8.9878 -18.6909 17.7830 0.0000 -0.0000 -19.0155 -12.6503 -7.8915 2.7426 -0.0000 -0.0000 -2.7865 -2.5622 1.5119 2.4893 -5.4931 -20.3240 32.6451 30.5603 -5.1126 -23.5254 -13.5987 -12.5542 13.5847 -9.2242 25.6897 -43.3027 26.7034 -18.4769 -179.9995 -66.4480 -179.9993 -7.5876 11.3616 12.9309 -0.0000 0.0000 -0.0000 -0.0000 0.0000 -0.0000 25.6997 -12.8990 -21.9243 14.0726 -27.9337 76.0870 -0.0001 29.6511 0.0000 -32.7328 18.5079 25.5073 0.0000 0.0000 -0.0000 0.0000 0.0000 -0.0000
-144.85239 89.753948 -22.531324 77.3593 -88.2959 98.0972 -60.9799 24.4951 59.2575 41.7930 -0.0000 0.0000 10.2080 2.4174 -35.2049 -1.6726 0.0000 -0.0000 -6.2355 -8.7620 -18.6783 17.7899 0.0000 -0.0000 -19.2246 -13.0319 -7.5241 2.8092 -0.0000 0.0000 -3.0158 -2.7876 1.4139 2.5842 -5.5339 -19.8566 32.2797 30.0401 -4.8220 -22.9541 -13.4256 -12.0639 13.7795 -9.3698 25.5946 -42.2490 26.4192 -20.0490 -179.9995 -65.5496 -179.9993 -6.3653 11.4601 12.4689 0.0000 0.0000 -0.0000 0.0000 0.0000 -0.0000 25.5286 -13.0308 -21.5646 14.2839 -26.8684 77.5260 -0.0001 27.7522 0.0000 -34.7123 17.6494 27.0316 -0.0000 0.0000 0.0000 -0.0000 0.0000 0.0000
-144.950942 89.68613 -22.401022 63.0683 -88.1416 83.6941 -57.8275 26.5444 56.5652 42.3219 0.0000 0.0000 10.9234 1.7206 -37.1835 -1.4932 0.0000 -0.0000 -5.9771 -8.5164 -18.6124 17.7025 0.0000 -0.0000 -19.4940 -13.5987 -7.0763 2.9721 -0.0000 -0.0000 -3.2869 -3.0287 1.3056 2.6971 -5.5884 -19.3132 32.0167 29.5430 -4.6262 -22.3479 -13.4582 -11.5325 13.9490 -9.5159 25.4647 -41.2494 26.0093 -21.6651 -179.9996 -64.8986 -179.9993 -4.9966 11.4686 12.1923 0.0000 0.0000 -0.0000 0.0000 0.0000 -0.0000 25.3279 -13.1243 -21.3266 14.4727 -25.7861 78.9636 -0.0001 26.0639 0.0000 -35.5485 17.0289 28.0223 0.0000 -0.0000 0.0000 0.0000 -0.0000 0.0000
